<svg xmlns="http://www.w3.org/2000/svg" viewBox="0 0 24 24" fill="none">
  <path
    d="M12 3.5C8.41015 3.5 5.5 6.41015 5.5 10C5.5 12.0391 6.43878 13.8589 7.9059 15.0508C8.80179 15.7788 9.38635 16.825 9.55808 18H14.4419C14.6136 16.825 15.1982 15.7788 16.0941 15.0508C17.5612 13.8589 18.5 12.0391 18.5 10C18.5 6.41015 15.5899 3.5 12 3.5Z"
    stroke="#d11f2f"
    stroke-width="1.8"
    stroke-linecap="round"
    stroke-linejoin="round"
  />
  <path
    d="M10 20H14"
    stroke="#d11f2f"
    stroke-width="1.8"
    stroke-linecap="round"
  />
  <path
    d="M10.5 22H13.5"
    stroke="#d11f2f"
    stroke-width="1.8"
    stroke-linecap="round"
  />
  <path
    d="M10 18H14"
    stroke="#d11f2f"
    stroke-width="1.8"
    stroke-linecap="round"
  />
  <path
    d="M10.5 11C10.8945 10.4172 11.4598 10.1258 12 10.1258C12.5402 10.1258 13.1055 10.4172 13.5 11"
    stroke="#d11f2f"
    stroke-width="1.8"
    stroke-linecap="round"
    stroke-linejoin="round"
  />
  <path
    d="M12 1.75V0.75"
    stroke="#d11f2f"
    stroke-width="1.8"
    stroke-linecap="round"
  />
  <path
    d="M18.0104 3.98956L18.7175 3.28246"
    stroke="#d11f2f"
    stroke-width="1.8"
    stroke-linecap="round"
  />
  <path
    d="M20.25 10H21.25"
    stroke="#d11f2f"
    stroke-width="1.8"
    stroke-linecap="round"
  />
  <path
    d="M3.75 10H2.75"
    stroke="#d11f2f"
    stroke-width="1.8"
    stroke-linecap="round"
  />
  <path
    d="M5.98956 3.98956L5.28246 3.28246"
    stroke="#d11f2f"
    stroke-width="1.8"
    stroke-linecap="round"
  />
</svg>
